<?xml version="1.0" encoding="UTF-8"?><svg id="a" xmlns="http://www.w3.org/2000/svg" viewBox="0 0 1024 1024"><rect width="1024" height="1024" style="fill:#6fb9e7;"/><rect x="131.53" y="131.53" width="760.93" height="760.93" rx="57.56" ry="57.56" style="fill:#a47449;"/><path d="m668.47,414.56h-48.56c0-34.91-5.82-57.07-17.46-66.49-11.64-9.41-39.04-14.12-82.2-14.12-51.21,0-84.22,4.5-99.02,13.49-14.81,9-22.22,29.04-22.22,60.14,0,34.91,5.82,56.18,17.46,63.79,11.63,7.62,46.23,12.8,103.78,15.55,67.49,2.97,110.39,11.53,128.7,25.71,18.3,14.18,27.45,45.92,27.45,95.22,0,53.32-10.53,87.81-31.58,103.47-21.06,15.66-67.55,23.49-139.49,23.49-62.42,0-103.94-7.88-124.57-23.64-20.63-15.76-30.94-47.55-30.94-95.37l-.32-19.36h48.56v10.79c0,38.72,5.92,62.79,17.77,72.2,11.85,9.42,42.21,14.12,91.09,14.12,56.07,0,90.56-4.71,103.47-14.12,12.9-9.41,19.36-34.54,19.36-75.38,0-26.45-4.39-44.06-13.17-52.84-8.78-8.78-27.14-14.01-55.07-15.71l-50.78-2.54-48.24-2.54c-73.42-5.08-110.13-43.16-110.13-114.26,0-49.3,10.68-82.2,32.06-98.71,21.37-16.5,64-24.76,127.91-24.76s106.96,7.67,126.64,23.01c19.68,15.34,29.52,48.3,29.52,98.86Z" style="fill:#fff;"/></svg>