<?xml version="1.0" encoding="UTF-8"?><svg id="Layer_1" xmlns="http://www.w3.org/2000/svg" viewBox="0 0 757.41 979.99"><path d="m280.1,2.54c-45.06,4.28-73,13.34-87.6,27.94-9.31,9.31-12.33,23.16-6.8,32.47,4.66,8.3,63.5,87.06,86.39,117.61,5.67,7.57,14.58,12.02,24.05,12.01l165.56-.21c9.45-.01,18.34-4.47,23.99-12.04,22.9-30.67,81.96-109.91,86.41-117.62,5.29-9.06,2.27-22.4-7.05-31.97C541.89,7.07,494.32-.48,373.74.02c-39.52.26-81.56,1.26-93.64,2.52Zm218.75,33.48c24.92,4.28,43.55,10.57,43.55,14.6,0,1.26-18.13,27.19-40.53,57.65l-36.03,49.01c-2.83,3.84-7.31,6.12-12.09,6.12h-149.95c-4.77,0-9.26-2.27-12.09-6.12l-36.03-49.01c-22.4-30.46-40.53-56.39-40.53-57.65,0-6.29,33.48-14.6,74.26-18.13,38.77-3.52,182.75-1,209.44,3.53Z"/><path d="m300.92,227.33c-6.89,0-13.56,2.38-18.91,6.72-18.11,14.67-53.11,49.42-80.2,80.38C98.35,432.24,26.61,564.14,4.71,675.66c-6.8,33.73-6.04,86.34,1.01,115.79,20.39,81.56,84.33,138.95,187.03,166.89,55.63,15.36,111.26,21.65,186.03,21.65,217.24,0,344.36-65.7,374.32-194.33,5.79-25.42,5.79-78.54-.25-109.25-17.63-91.62-68.73-196.34-144.75-297.54-41.1-54.8-104.89-123.94-133.15-145.48-5.19-3.96-11.55-6.06-18.07-6.06h-155.96Zm178.54,51.1c30.46,28.7,72.5,76.78,104.72,119.57,124.86,167.15,172.43,327,125.11,421.14-29.7,58.4-85.84,95.15-177.21,115.54-131.66,29.45-301.82,16.86-393.7-29.45-54.37-27.19-88.36-66.71-102.45-119.57-3.78-14.85-5.03-27.19-5.03-52.11,0-58.65,15.61-115.29,53.37-191.31,44.56-90.12,105.22-174.2,180.24-249.96l26.7-26.9c5.63-5.67,13.28-8.85,21.27-8.85h131.76c7.61,0,14.93,2.89,20.49,8.1l14.74,13.8Z"/></svg>